<svg width="168" height="120" viewBox="0 0 168 120" fill="none" xmlns="http://www.w3.org/2000/svg">
<g clip-path="url(#clip0_1026_9683)">
<path d="M44.4355 45.8967C47.547 45.8969 50.511 47.6997 52.7793 51.0813C55.1067 54.5536 56.3107 58.8715 56.4521 63.3645L56.4668 64.2649C56.4668 64.4439 56.4653 64.6201 56.4609 64.7932C56.4478 65.3123 56.4152 65.8055 56.3643 66.2747C56.2964 66.9001 56.1959 67.4831 56.0654 68.0286C56.0328 68.165 55.9983 68.2991 55.9619 68.4309C55.7076 69.3534 55.3633 70.165 54.9434 70.8918C54.3058 71.9963 53.252 73.0998 51.668 73.6819C51.5239 73.7348 51.3755 73.7835 51.2227 73.8274C50.9932 73.8933 50.7538 73.949 50.5039 73.9924C50.4208 74.0069 50.3364 74.0197 50.251 74.0315C49.9943 74.0668 49.7271 74.0896 49.4492 74.0989C49.3563 74.102 49.2623 74.1038 49.167 74.1038L48.8154 74.0989C47.0671 74.0474 45.4871 73.5834 43.751 71.9456C42.3273 70.6046 40.6622 68.2226 39.3818 66.0813L35.5732 59.72C35.4648 59.5388 35.3544 59.3616 35.2471 59.1858C35.1391 59.3768 35.03 59.5698 34.9199 59.7649L33.582 62.136C30.8947 66.9009 30.2138 67.9865 28.8701 69.7776C26.5148 72.9141 24.5032 74.1036 21.8555 74.1038C18.7143 74.1038 16.7272 72.7434 15.4971 70.6936C14.4929 69.0234 14 66.8314 14 64.3342C14 59.7934 15.2462 55.0604 17.6162 51.4055C17.682 51.3041 17.7488 51.2032 17.8164 51.1038C17.8839 51.0045 17.9522 50.9061 18.0215 50.8088C18.2987 50.4194 18.5901 50.0465 18.8945 49.6926C18.9706 49.6042 19.0473 49.5169 19.125 49.4309C19.4359 49.0868 19.76 48.7625 20.0957 48.4602C20.3475 48.2334 20.6062 48.0194 20.8711 47.8186C21.4891 47.3502 22.1415 46.9552 22.8232 46.6477C22.9206 46.6038 23.0187 46.562 23.1172 46.5217C23.5115 46.3604 23.9151 46.2278 24.3271 46.1272C24.4301 46.102 24.5337 46.079 24.6377 46.0579C24.95 45.9944 25.2668 45.9492 25.5879 45.9231C25.8019 45.9057 26.0177 45.8967 26.2354 45.8967C28.2512 45.8967 30.256 46.4937 32.3486 48.2024C33.4515 49.1026 34.588 50.2843 35.8115 51.8333C36.8061 50.4896 37.879 49.2188 39.0332 48.2122C40.7403 46.7236 42.5822 45.8967 44.4355 45.8967ZM107.562 53.1467C113.321 53.1467 116.759 57.5211 116.759 63.9895V65.178H102.066C102.588 68.325 104.676 70.4456 108.043 70.4456C110.729 70.4456 112.408 69.626 114 68.1272L116.3 70.9436C114.133 72.9357 111.378 74.0842 107.89 74.0842C101.553 74.0842 97.7745 69.4636 97.7744 63.6643C97.7744 57.5771 101.709 53.147 107.562 53.1467ZM143.521 53.1467C146.277 53.1467 148.439 54.248 149.899 56.1926V53.6262H153.999V73.6057H149.899V70.8088C148.753 72.4554 146.668 74.0842 143.291 74.0842C137.859 74.0842 134.23 69.5374 134.229 63.6067C134.229 57.6198 137.947 53.1467 143.521 53.1467ZM126.184 53.6262H132.237V57.1711H126.184V66.1536C126.184 69.2207 127.164 70.3107 129.574 70.3108C130.674 70.3108 131.305 70.2168 132.237 70.0618V73.5676C131.077 73.8955 129.969 74.0461 128.77 74.0461C124.261 74.0461 122.008 71.5826 122.008 66.6516V57.1711H118.023V53.6262H122.008V47.7649H126.184V53.6262ZM79.7109 63.1086L88.7334 46.7874H93.9248V73.6057H89.5967V53.052L81.6836 67.2854H77.6221L69.7109 53.052V73.6057H65.3828V46.7874H70.6885L79.7109 63.1086ZM144.363 56.9407C140.789 56.9407 138.502 59.4761 138.502 63.6067C138.502 67.6336 140.608 70.292 144.191 70.2922C147.009 70.2922 149.021 68.6529 149.823 66.6135V60.6174C148.984 58.4997 147.113 56.9407 144.363 56.9407ZM26.1621 50.509C24.3502 50.509 22.8112 51.7801 21.5234 53.7249H21.5225C19.7016 56.4731 18.5869 60.5671 18.5869 64.4983C18.5869 66.1198 18.943 67.3652 19.4082 68.1184C20.0181 69.1047 20.9282 69.5227 21.8555 69.5227C23.0515 69.5226 24.1463 69.2252 26.2549 66.3088C27.9442 63.9712 29.935 60.6902 31.2744 58.6331L33.0781 55.8596C32.1966 54.6042 31.4407 53.6469 30.8955 53.0676C29.8042 51.9084 28.4008 50.5091 26.1621 50.509ZM44.2139 49.5315C42.0209 49.5315 40.2558 51.185 38.2725 54.134C38.1476 54.3196 38.0223 54.5103 37.8965 54.7053C38.6033 55.754 39.3419 56.9199 40.1201 58.2161L41.2119 60.0354C43.8465 64.4244 45.3454 66.6825 46.2227 67.7473C47.2804 69.0293 48.0409 69.468 48.9775 69.5178L49.167 69.5227C51.7705 69.5226 52.4199 67.1298 52.4199 64.3918C52.4199 60.4903 51.5107 56.1605 49.5068 53.0667C48.0847 50.8722 46.2414 49.5316 44.2139 49.5315ZM107.487 56.7864C104.383 56.7866 102.514 59.123 102.066 62.0159H112.602C112.384 59.0358 110.665 56.7864 107.487 56.7864Z" fill="#5D5D5D"/>
</g>
<defs>
<clipPath id="clip0_1026_9683">
<rect width="140" height="28.2068" fill="white" transform="translate(14 45.8967)"/>
</clipPath>
</defs>
</svg>
